<?xml version="1.0" encoding="utf-8"?>
<!-- Generator: Adobe Illustrator 27.4.0, SVG Export Plug-In . SVG Version: 6.00 Build 0)  -->
<svg version="1.1" id="Layer_1" xmlns="http://www.w3.org/2000/svg" xmlns:xlink="http://www.w3.org/1999/xlink" x="0px" y="0px"
	 viewBox="0 0 40 40" style="enable-background:new 0 0 40 40;" xml:space="preserve">
<style type="text/css">
	.st0{fill:#FFFFFF;}
</style>
<g>
	<path class="st0" d="M20,28.1c-4.5,0-8.1-3.6-8.1-8.1s3.6-8.1,8.1-8.1s8.1,3.6,8.1,8.1S24.5,28.1,20,28.1z M20,14.2
		c-3.2,0-5.8,2.6-5.8,5.8s2.6,5.8,5.8,5.8s5.8-2.6,5.8-5.8S23.2,14.2,20,14.2z"/>
	<circle class="st0" cx="28.7" cy="11.3" r="1.7"/>
	<path class="st0" d="M26.9,35H13.1C8.6,35,5,31.4,5,26.9V13.1C5,8.6,8.6,5,13.1,5h13.8c4.5,0,8.1,3.6,8.1,8.1v13.8
		C35,31.4,31.4,35,26.9,35z M13.1,7.3c-3.2,0-5.8,2.6-5.8,5.8v13.8c0,3.2,2.6,5.8,5.8,5.8h13.8c3.2,0,5.8-2.6,5.8-5.8V13.1
		c0-3.2-2.6-5.8-5.8-5.8H13.1z"/>
</g>
</svg>
