<?xml version="1.0" encoding="utf-8"?>
<!-- Generator: Adobe Illustrator 27.4.0, SVG Export Plug-In . SVG Version: 6.00 Build 0)  -->
<svg version="1.1" id="Layer_1" xmlns="http://www.w3.org/2000/svg" xmlns:xlink="http://www.w3.org/1999/xlink" x="0px" y="0px"
	 viewBox="0 0 40 40" style="enable-background:new 0 0 40 40;" xml:space="preserve">
<style type="text/css">
	.st0{fill:#FFFFFF;}
	.st1{fill:#B0BEC5;}
	.st2{fill:#CFD8DC;}
</style>
<path class="st0" d="M35.1,8.7l-4.6,23.6c0,0-0.2,1.1-1.5,1.1c-0.7,0-1.1-0.3-1.1-0.3l-10-8.3l-4.9-2.5l-6.3-1.7
	c0,0-1.1-0.3-1.1-1.2c0-0.8,1.2-1.1,1.2-1.1L33,7.7c0,0,0.8-0.3,1.4-0.3c0.4,0,0.8,0.2,0.8,0.6C35.1,8.4,35.1,8.7,35.1,8.7z"/>
<path class="st1" d="M21.6,27.8L17.3,32c0,0-0.2,0.1-0.4,0.1c-0.1,0-0.2,0-0.3-0.1l1.2-7.4L21.6,27.8z"/>
<path class="st2" d="M30.1,12.6c-0.2-0.3-0.6-0.3-0.9-0.1l-16.3,9.7c0,0,2.6,7.3,3,8.5c0.4,1.3,0.7,1.3,0.7,1.3l1.2-7.4L30,13.5
	C30.2,13.3,30.3,12.9,30.1,12.6z"/>
</svg>
