<?xml version="1.0" encoding="UTF-8"?>
<svg id="Layer_2" data-name="Layer 2" xmlns="http://www.w3.org/2000/svg" viewBox="0 0 40 40" width="40px" height="40px">
    <defs>
        <style>
            .cls-1 {
            fill: #fff;
            }

            .cls-2 {
            fill: #fff;
            }
        </style>
    </defs>
    <g id="Layer_1-2" data-name="Layer 1">
        <g>
            <path class="cls-2"
                  d="m8.51,1.07C9.94.09,11.79-.24,13.47.18c1.25.33,2.51.66,3.76,1-.06,0-.11.03-.16.04-3.13.45-6.14,1.72-8.67,3.64-1.07.81-2.05,1.73-2.92,2.74-.12.14-.23.29-.37.41.02-.1.04-.19.06-.29.29-1.08.57-2.15.86-3.23.39-1.39,1.28-2.63,2.48-3.43Z"/>
            <path class="cls-2"
                  d="m31.46,4.96c1.21.31,2.42.64,3.63.96.67.16,1.32.4,1.92.76,1.37.81,2.39,2.19,2.79,3.74.27,1.01.27,2.1,0,3.11-.33,1.24-.66,2.48-.99,3.72-.03.12-.04.25-.12.34-.41-3.37-1.77-6.6-3.85-9.26-.98-1.26-2.13-2.4-3.39-3.37Z"/>
            <path class="cls-2"
                  d="m.25,26.27c.29-1.08.56-2.17.87-3.24.57,3.62,2.24,7.05,4.7,9.74.57.63,1.19,1.22,1.84,1.76.15.13.32.25.46.39-1.14-.3-2.29-.61-3.43-.91-.66-.17-1.29-.44-1.87-.81-1.32-.85-2.3-2.24-2.65-3.79-.25-1.03-.21-2.13.08-3.14Z"/>
            <path class="cls-2"
                  d="m34.38,32.25c.23-.26.42-.55.66-.8-.24.99-.52,1.97-.77,2.95-.17.62-.3,1.25-.56,1.84-.54,1.28-1.53,2.35-2.75,3.01-1.11.6-2.4.86-3.65.7-.56-.06-1.1-.23-1.64-.37-.72-.19-1.44-.38-2.16-.57-.28-.08-.57-.13-.84-.24,4.52-.64,8.76-3.02,11.71-6.53Z"/>
        </g>
        <path class="cls-1"
              d="m19.4,2.67c2.27-.08,4.55.28,6.67,1.08,3.16,1.17,5.96,3.3,7.95,6.04,1.08,1.47,1.92,3.12,2.48,4.86,1.12,3.45,1.12,7.26,0,10.71-.78,2.4-2.1,4.63-3.82,6.47-1.63,1.74-3.61,3.14-5.79,4.09-3.07,1.33-6.51,1.74-9.8,1.18-3.56-.59-6.92-2.35-9.46-4.95-2.46-2.49-4.14-5.75-4.72-9.21-.45-2.64-.29-5.39.49-7.96,1.01-3.36,3.07-6.38,5.8-8.55,2.89-2.32,6.52-3.65,10.21-3.77Zm-5.15,4.69c-.7.12-1.38.39-1.98.79-.91.61-1.6,1.53-1.94,2.58-.35,1.06-.32,2.24.08,3.28.36.96,1.03,1.79,1.87,2.35.95.64,2.11.93,3.24.81,1.44-.13,2.79-.94,3.61-2.14.63-.92.93-2.06.84-3.18-.12-1.64-1.12-3.18-2.56-3.96-.96-.53-2.1-.72-3.18-.54Zm12.7,2.36c-1.07.12-2.09.59-2.87,1.33-1.09,1.02-1.67,2.56-1.52,4.05.1,1.07.56,2.11,1.29,2.9,1.03,1.14,2.61,1.73,4.13,1.57,1.58-.15,3.05-1.11,3.83-2.5.57-1.01.77-2.22.55-3.35-.16-.84-.54-1.63-1.09-2.28-1.04-1.24-2.71-1.9-4.31-1.72Zm-7.4,8.23c-.46.08-.89.31-1.22.64-.4.41-.62.98-.62,1.55,0,.58.25,1.15.66,1.55.45.45,1.1.68,1.73.62.66-.05,1.28-.43,1.65-.99.35-.52.45-1.19.28-1.79-.15-.57-.55-1.06-1.06-1.34-.43-.24-.95-.33-1.43-.25Zm-7.64,2.49c-1.13.14-2.2.69-2.99,1.52-1.07,1.12-1.56,2.77-1.26,4.3.18.97.66,1.88,1.35,2.58,1.12,1.15,2.82,1.69,4.39,1.39,1.48-.26,2.81-1.23,3.51-2.57.49-.93.68-2.03.51-3.08-.15-.96-.6-1.88-1.25-2.59-1.06-1.17-2.7-1.76-4.26-1.56Zm12.61,2.38c-1.67.14-3.24,1.2-3.98,2.72-.48.96-.64,2.09-.43,3.14.17.91.61,1.77,1.25,2.45,1.03,1.12,2.6,1.7,4.1,1.55,1.05-.1,2.07-.56,2.85-1.27,1.1-.99,1.71-2.5,1.6-3.99-.07-1.07-.5-2.1-1.2-2.91-1.02-1.2-2.64-1.85-4.2-1.7Z"/>
    </g>
</svg>