<?xml version="1.0" encoding="UTF-8"?>
<svg id="Layer_1" data-name="Layer 1" xmlns="http://www.w3.org/2000/svg" viewBox="0 0 48 48">
    <path fill="#fff"
          d="m9.67.49C11.52-.15,13.51.05,15.44.02c6.27,0,12.54,0,18.81,0,4.34-.24,8.63,1.98,11.13,5.4,1.72,2.22,2.68,5,2.62,7.79-.02,2.2,0,4.41,0,6.61-.04.3.06.73-.29.89-2.17,1.35-3.82,3.32-5.64,5.08-3.33,3.29-6.65,6.96-11.25,8.55-2.52.97-5.29.78-7.85.11-.74,1.59-1.13,3.34-1.17,5.09-2.64-.51-4.97-2.39-6-4.81-.55-1.08-.58-2.3-.78-3.46-.63-.64-1.37-1.18-1.87-1.93-1.31-1.81-1.6-4.28-.68-6.31,1.51-3.42,4.6-5.96,7.99-7.54,2.94-1.45,6.29-2.31,9.59-1.88,2.41.36,4.82,1.67,5.92,3.88.31.58-.13,1.18-.48,1.63-.96,1.09-2.32,1.76-3.67,2.3-2.5.94-5.21,1.51-7.9,1.19-1.12-.18-2.35-.59-2.99-1.57-.55-.87-.35-1.94-.27-2.9-1.86.49-3.09,2.27-3.51,4.03-.42,1.62.45,3.24,1.65,4.3-.81,1.21-1.71,2.44-1.89,3.92-.45,2.83,1.17,5.69,3.68,7.09.05-2.42,1.22-4.76,3.09-6.32,3.6-3.09,8.55-3.96,12.34-6.77,2.53-1.9,3.77-5.05,3.96-8.09.15-2.56-.25-5.27-1.77-7.42-2.11-3.21-6.18-4.86-10-4.62-3.16.08-6.12,1.42-8.75,3.05-5.3,3.45-9.33,8.66-11.39,14.53-1.4,3.88-1.96,8.17-.88,12.19.93,3.75,3.67,7.04,7.27,8.64,4.4,2.12,9.74,2.37,14.28.52,3.86-1.59,6.97-4.48,9.59-7.61,2.56-2.95,4.69-6.22,7.19-9.21.72-.83,1.41-1.75,2.43-2.24.04,2.96,0,5.91.02,8.87,0,1.42.08,2.85-.22,4.26-.71,3.36-2.75,6.44-5.66,8.37-1.97,1.3-4.27,2.15-6.64,2.36-7.08.02-14.16,0-21.24.01-3.57.18-7.19-1.17-9.8-3.55C1.59,41.91-.1,38.16,0,34.4c0-7.14,0-14.29,0-21.44C.03,7.35,4.18,2.08,9.67.49Z"/>
</svg>