<?xml version="1.0" encoding="utf-8"?>
<!-- Generator: Adobe Illustrator 27.4.0, SVG Export Plug-In . SVG Version: 6.00 Build 0)  -->
<svg version="1.1" id="Layer_1" xmlns="http://www.w3.org/2000/svg" xmlns:xlink="http://www.w3.org/1999/xlink" x="0px" y="0px"
	 viewBox="0 0 48.4 48.3" style="enable-background:new 0 0 48.4 48.3;" xml:space="preserve">
<style type="text/css">
	.st0{fill:#FFFFFF;stroke:#FFFFFF;stroke-width:0.25;stroke-miterlimit:10;}
	.st1{fill:#FFFFFF;}
	.st2{fill:#BFBFBF;}
	.st3{fill:#E4E4E4;}
	.st4{fill:#F1F1F1;}
</style>
<path class="st0" d="M20.1,1.4c1.3-0.7,2.7-1.3,4.2-1.3c0,2.8,0,5.6,0,8.4c0,1,0,2,0,2.9h0C22.7,10.6,21,9.9,19.4,9
	c-2.4-1.2-4.7-2.4-7.1-3.6C14.9,4.1,17.5,2.8,20.1,1.4z"/>
<path class="st0" d="M24.3,0.1c1.8,0,3.3,0.9,4.8,1.6c2.4,1.2,4.7,2.4,7.1,3.7c-3.3,1.7-6.6,3.3-10,5c-0.7,0.4-1.4,0.6-2,1l0,0
	c0-1,0-2,0-2.9C24.3,5.8,24.3,2.9,24.3,0.1L24.3,0.1z"/>
<path class="st0" d="M36.2,5.4L36.2,5.4L36.2,5.4c0,4.1,0.1,8.3,0,12.4l0,0c-4-2.1-8-4.2-11.9-6.4c0.6-0.4,1.3-0.7,2-1
	C29.6,8.8,32.9,7.1,36.2,5.4L36.2,5.4z"/>
<path class="st0" d="M4.2,9.7c2.7-1.4,5.4-2.8,8-4.2c0,4.1,0,8.3,0,12.4c-1.2-0.5-2.4-1.2-3.6-1.8c-2.5-1.3-5.1-2.5-7.6-3.9
	C1.8,11.1,3,10.3,4.2,9.7L4.2,9.7z"/>
<path class="st0" d="M12.3,5.5L12.3,5.5C14.7,6.6,17,7.8,19.4,9c1.6,0.8,3.3,1.6,4.9,2.5c-3.9,2.1-7.9,4.2-11.8,6.3
	c0,0-0.1,0.1-0.1,0.1C12.3,13.7,12.3,9.6,12.3,5.5L12.3,5.5z"/>
<path class="st0" d="M36.3,5.5c2.6,1.3,5.2,2.7,7.8,4.1c1.3,0.7,2.7,1.4,3.4,2.7c-3.7,1.9-7.4,3.8-11.2,5.6l-0.1,0
	C36.2,13.7,36.2,9.6,36.3,5.5L36.3,5.5z"/>
<path class="st0" d="M0.5,14.1c0.1-0.6,0.3-1.3,0.7-1.9c2.5,1.3,5,2.6,7.6,3.8c1.2,0.6,2.4,1.2,3.6,1.8l0,0c-4,2.1-8,4.3-12,6.4
	c0-2.1,0-4.2,0-6.3C0.3,16.7,0.2,15.4,0.5,14.1L0.5,14.1z"/>
<path class="st0" d="M36.3,17.9c3.7-1.9,7.4-3.8,11.1-5.6c0.5,0.9,0.7,2,0.8,3.1c0,3,0,6,0,9h-0.1c-0.2-0.2-0.6-0.4-0.8-0.5
	C43.7,21.8,40,19.9,36.3,17.9z"/>
<path class="st0" d="M36.2,17.9L36.2,17.9c3.8,2,7.4,4,11.1,5.9c0.3,0.2,0.6,0.3,0.8,0.5c-4,2-8,4.1-12,6
	C36.2,26.2,36.2,22,36.2,17.9L36.2,17.9z"/>
<path class="st0" d="M0.3,24.3c4-2.1,8-4.3,12-6.4c0,4.1,0,8.3,0,12.5c-2.4-1.1-4.7-2.4-7.1-3.6C3.6,25.9,1.9,25.1,0.3,24.3
	C0.3,24.3,0.3,24.3,0.3,24.3z"/>
<path class="st0" d="M0.3,24.3c1.6,0.8,3.2,1.6,4.9,2.5c2.4,1.2,4.7,2.4,7.1,3.6h0c-3.7,2-7.4,3.9-11,5.9c-0.7-1-0.9-2.2-0.9-3.3
	c-0.1-2.2,0-4.5,0-6.7C0.3,25.5,0.2,24.9,0.3,24.3z"/>
<path class="st0" d="M36.2,30.4c4-2,8-4,12-6h0.1c0,2.5,0,5.1,0,7.6c0,1.5-0.1,3-1,4.3c-3.2-1.7-6.3-3.4-9.5-5.1
	C37.3,30.9,36.8,30.6,36.2,30.4L36.2,30.4L36.2,30.4z"/>
<path class="st0" d="M1.2,36.2c3.7-2,7.4-3.9,11-5.9c0,4.2,0,8.3,0,12.5c-2.1-1.1-4.2-2.2-6.3-3.3c-0.9-0.5-1.7-0.9-2.6-1.4
	C2.6,37.6,1.8,37,1.2,36.2z"/>
<path class="st0" d="M12.3,30.4c4,2,8,4.1,12,6.1h0c-4,2.1-8,4.3-12,6.4h0C12.3,38.7,12.3,34.5,12.3,30.4z"/>
<path class="st0" d="M24.3,36.4c4-2,8-4,12-6c0,4.2,0,8.3,0,12.5h0C32.2,40.7,28.3,38.6,24.3,36.4L24.3,36.4L24.3,36.4z"/>
<path class="st0" d="M36.2,30.4c0.5,0.2,1.1,0.6,1.6,0.8c3.2,1.7,6.3,3.4,9.5,5.1c-0.5,0.8-1.3,1.3-2.1,1.8c-1.2,0.7-2.5,1.4-3.8,2
	c-1.7,0.9-3.5,1.8-5.2,2.7C36.2,38.7,36.3,34.5,36.2,30.4L36.2,30.4z"/>
<path class="st0" d="M12.3,42.8c4-2.1,8-4.3,12-6.4c0,3.9,0,7.8,0,11.7c-1,0-2-0.3-2.9-0.7C18.3,45.8,15.3,44.3,12.3,42.8L12.3,42.8
	z"/>
<path class="st0" d="M24.3,36.4c4,2.1,8,4.2,11.9,6.4c-1.3,0.7-2.7,1.4-4,2.1c-1.8,0.9-3.6,1.8-5.4,2.8c-0.8,0.3-1.6,0.5-2.5,0.5
	C24.3,44.2,24.3,40.3,24.3,36.4z"/>
<g>
	<path class="st1" d="M24.2,24.1c-1.2-0.6-2.3-1.1-3.4-1.7c-0.8-0.4-1.6-0.8-2.4-1.2c-0.9-0.5-1.8-0.9-2.6-1.3
		c-1.1-0.6-2.3-1.1-3.4-1.7L12.3,18v-0.1l0.1-0.1c2-1.1,9.9-5.3,11.8-6.3l0.1,0c2.1,1.1,4.2,2.3,6.3,3.4c1.9,1,3.7,2,5.6,3l0,0.2
		c-2.5,1.3-5.1,2.6-7.7,3.9c-1.4,0.7-2.9,1.4-4.3,2.2L24.2,24.1z"/>
	<path class="st2" d="M24.3,11.5c4,2.2,8,4.2,11.9,6.4c-4,2-8,4-11.9,6.1c-2-1-3.9-2-5.8-2.9c-2-1-4-2-6-3.1c0,0,0-0.1,0-0.1
		C16.4,15.7,20.3,13.6,24.3,11.5L24.3,11.5L24.3,11.5 M24.3,11.3L24.3,11.3l-0.1,0.1l0,0c-2,1-3.9,2.1-5.9,3.1c-2,1-3.9,2.1-5.9,3.1
		l-0.1,0.2V18l0.1,0.2c1.1,0.6,2.2,1.2,3.4,1.7c0.9,0.4,1.8,0.9,2.6,1.3c0.8,0.4,1.6,0.8,2.4,1.2c1.1,0.6,2.3,1.2,3.4,1.7l0.2,0
		c1.4-0.7,2.9-1.5,4.3-2.2c2.5-1.3,5.1-2.6,7.6-3.9l0-0.4c-1.9-1-3.7-2-5.6-3c-2.1-1.1-4.2-2.2-6.3-3.4L24.3,11.3L24.3,11.3z"/>
</g>
<g>
	<path class="st3" d="M12.2,30.4l-0.1-0.1c0-2.8,0-5.5,0-8.3l0-4.1h0l0.1-0.1l0.2-0.1l0.2,0.1v0.1c1.3,0.7,2.7,1.4,4.1,2.1l1.9,0.9
		c0.8,0.4,1.6,0.8,2.4,1.2c1.1,0.6,2.3,1.2,3.4,1.7l0.1,0.1l0,4.2c0,2.8,0,5.5,0,8.3l-0.2,0.1L12.2,30.4z"/>
	<path class="st2" d="M12.4,17.8c0,0,0,0.1,0,0.1c2,1,4,2,6,3.1c1.9,1,3.9,2,5.8,2.9c0,4.2,0,8.3,0,12.5c-4-2-8-4-12-6.1h0
		c0-4.2,0-8.3,0-12.5C12.3,17.9,12.4,17.8,12.4,17.8 M12.3,17.9C12.3,17.9,12.3,17.9,12.3,17.9L12.3,17.9L12.3,17.9 M12.3,17.6
		c0,0-0.2,0.1-0.2,0.1L12,17.9l0,0v0l0,4.1c0,2.8,0,5.5,0,8.3l0.2,0.2l0,0l12,6.1l0.4-0.2c0-2.8,0-5.5,0-8.3c0-1.4,0-2.8,0-4.2
		l-0.1-0.2c-1.1-0.6-2.3-1.1-3.4-1.7c-0.8-0.4-1.6-0.8-2.4-1.2c-0.6-0.3-1.3-0.6-1.9-1c-1.4-0.7-2.8-1.4-4.1-2.1L12.3,17.6
		L12.3,17.6z"/>
</g>
<g>
	<path class="st4" d="M24.1,36.4c0-3.4,0-6.9,0-10.3l0-2.1l0.1-0.1c1.4-0.7,2.9-1.5,4.3-2.2c2.5-1.3,5.1-2.6,7.6-3.9l0.2,0.1v12.5
		l-0.1,0.1c-2,1-4,2-5.9,3c-2,1-4,2-6,3L24.1,36.4z"/>
	<path class="st2" d="M36.2,17.9c0,4.2,0,8.3,0,12.5h0c-4,2-8,4.1-12,6.1c0-4.2,0-8.3,0-12.5C28.2,21.9,32.2,19.9,36.2,17.9
		L36.2,17.9L36.2,17.9 M36.1,17.6L36.1,17.6c-2.6,1.3-5.2,2.7-7.7,3.9c-1.4,0.7-2.9,1.4-4.3,2.2L24,24l0,2.1c0,3.4,0,6.9,0,10.4
		l0.4,0.2c2-1,4-2,6-3c2-1,4-2,6-3l0-0.1l0.2-0.2V17.9L36.1,17.6L36.1,17.6z"/>
</g>
</svg>
