<?xml version="1.0" encoding="UTF-8"?>
<svg id="Layer_2" data-name="Layer 2" xmlns="http://www.w3.org/2000/svg" viewBox="0 0 39.75 40">
  <defs>
    <style>
      .cls-1 {
        fill: #fff;
      }

      .cls-2 {
        fill: #fff;
      }
    </style>
  </defs>
  <g id="Layer_1-2" data-name="Layer 1">
    <path class="cls-1" d="m10.14.49c.08-.25.28-.49.57-.49.26-.02.44.18.59.36,1.93,2.29,3.88,4.57,5.81,6.87.21.29.58.37.9.5,3.96,1.43,7.92,2.89,11.88,4.31.4-.31.28-1.07.76-1.37.3-.15.62.05.91.13.61.25,1.25.42,1.85.7.3.15.32.55.19.82-.64,1.74-1.26,3.47-1.9,5.21-.08.31-.39.59-.72.47-.72-.23-1.42-.51-2.13-.77-.29-.08-.57-.35-.48-.67.1-.4.28-.79.41-1.19-.82-.33-1.65-.61-2.47-.92.24,1.64-.04,3.36-.92,4.78-1.02,1.72-2.82,2.95-4.79,3.27-1.47.26-3.03.01-4.35-.67-1.62-.82-2.87-2.32-3.42-4.04-.55-1.69-.43-3.58.36-5.17.25-.55.62-1.03.96-1.52-2.47.4-4.92.85-7.39,1.25-.42.1-.82-.37-.64-.76,1.34-3.7,2.69-7.4,4.03-11.1Zm8.4,11.8c-.85.23-1.6.78-2.06,1.53-.61.97-.69,2.26-.19,3.3.53,1.16,1.74,1.97,3.02,2,1.24.05,2.48-.62,3.11-1.69.63-1.04.66-2.41.06-3.46-.73-1.37-2.44-2.11-3.93-1.68Z"/>
    <g>
      <path class="cls-2" d="m34.7,24.65c.82-.31,1.78.33,1.83,1.19.09.79-.62,1.56-1.42,1.49-.81.02-1.48-.82-1.32-1.61.08-.49.44-.91.91-1.08Z"/>
      <path class="cls-2" d="m6.56,27.42c1.22-1.18,3.27-1.33,4.66-.37.86.59,1.47,1.54,1.64,2.57.08.53.05,1.07.04,1.6,1.53,0,3.07.04,4.6-.02,0-.54-.03-1.09,0-1.63,0-.21.2-.41.41-.4.62-.02,1.24,0,1.86,0,.23-.03.46.16.47.4.03.55,0,1.1,0,1.65,1.53.02,3.06.05,4.59-.01,0-.58-.05-1.16.02-1.74.23-.5.88-.24,1.31-.3.45.07,1.14-.22,1.4.3.07.58.02,1.16.02,1.74,3.9.05,7.81,0,11.72.02.37-.03.57.41.4.71-.21.52-.32,1.09-.65,1.55-.25.3-.63.49-1.02.48-3.53,0-7.06,0-10.6,0-.45.02-.84-.21-1.26-.32-.41.17-.84.34-1.29.32-1.59,0-3.19,0-4.78,0-.45.02-.84-.2-1.26-.32-.38.15-.76.32-1.17.32-1.61.02-3.22-.03-4.82.03-.28,1.83-1.94,3.33-3.79,3.41-.93.02-1.86,0-2.79,0-.33.05-.6-.34-.46-.63.17-.49.35-.97.52-1.45.11-.33.39-.62.75-.66.65-.06,1.3.03,1.95-.04.4-.05.7-.35.96-.64-.86-.08-1.77.11-2.59-.22-1.27-.47-2.13-1.81-2.05-3.16-.09-1.18.33-2.4,1.22-3.19Zm1.96,1.96c-.47.32-.45.95-.41,1.46.02.23.25.41.48.39.52.02,1.04,0,1.56,0,0-.4.02-.8,0-1.2-.08-.72-1.06-1.14-1.62-.65Z"/>
      <path class="cls-2" d="m33.3,27.19c.84-.28,1.8.44,1.77,1.32.04.85-.85,1.58-1.68,1.36-.81-.15-1.3-1.11-.98-1.86.16-.39.49-.7.89-.82Z"/>
      <path class="cls-2" d="m36.32,27.17c.82-.21,1.71.49,1.68,1.34.04.86-.87,1.59-1.71,1.35-.78-.16-1.26-1.09-.96-1.82.16-.43.54-.77.99-.87Z"/>
      <path class="cls-2" d="m2.7,31.26c.55-.06,1.11-.03,1.67-.02.3,0,.53.37.38.63-.6,1.65-1.21,3.31-1.8,4.96-.09.25-.2.61-.53.59-.66,0-1.32,0-1.98,0-.3.01-.53-.33-.41-.6.54-1.54,1.12-3.07,1.67-4.61.15-.46.53-.85,1-.94Z"/>
      <path class="cls-2" d="m14.1,34.74c.81-.33,1.82.34,1.82,1.22.1.78-.62,1.52-1.4,1.47-.64,0-1.2-.51-1.32-1.12-.14-.65.27-1.36.9-1.57Z"/>
      <path class="cls-2" d="m17.01,34.75c.79-.33,1.75.26,1.84,1.1.14.77-.52,1.58-1.31,1.58-.74.06-1.44-.6-1.43-1.34-.04-.58.35-1.14.89-1.33Z"/>
      <path class="cls-2" d="m20.61,34.74c.82-.33,1.81.35,1.82,1.23.08.77-.62,1.51-1.4,1.46-.79.02-1.46-.77-1.34-1.55.07-.51.43-.98.92-1.14Z"/>
      <path class="cls-2" d="m23.52,34.74c.83-.35,1.83.33,1.85,1.21.07.74-.57,1.46-1.31,1.46-.74.06-1.45-.6-1.43-1.34-.04-.58.35-1.15.89-1.33Z"/>
      <path class="cls-2" d="m15.61,37.29c.87-.29,1.83.44,1.8,1.35,0,.87-.92,1.57-1.76,1.31-.82-.21-1.25-1.23-.85-1.97.17-.32.46-.58.81-.69Z"/>
    </g>
  </g>
</svg>