<?xml version="1.0" standalone="no"?>
<!DOCTYPE svg PUBLIC "-//W3C//DTD SVG 20010904//EN"
 "http://www.w3.org/TR/2001/REC-SVG-20010904/DTD/svg10.dtd">
<svg version="1.0" xmlns="http://www.w3.org/2000/svg"
 width="295.000000pt" height="295.000000pt" viewBox="0 0 295.000000 295.000000"
 preserveAspectRatio="xMidYMid meet">
<metadata>
Created by potrace 1.16, written by Peter Selinger 2001-2019
</metadata>
<g transform="translate(0.000000,295.000000) scale(0.100000,-0.100000)"
fill="#000000" stroke="none">
<path d="M1085 2920 c-66 -4 -312 -8 -546 -9 l-427 -1 -7 -367 c-8 -400 4
-803 30 -983 43 -294 139 -471 324 -592 40 -26 79 -48 87 -48 7 0 16 -4 19
-10 4 -7 -79 -9 -242 -8 l-248 2 3 -29 c6 -68 45 -244 72 -329 60 -186 177
-329 331 -405 239 -118 525 -141 1548 -123 372 7 711 12 754 12 l77 0 0 538
c0 533 -7 696 -36 864 -45 268 -153 443 -342 553 l-77 45 244 0 243 0 -5 38
c-10 71 -47 237 -68 302 -76 236 -231 395 -459 470 -92 30 -269 58 -450 71
-191 14 -663 19 -825 9z m805 -200 c325 -23 508 -80 616 -189 48 -49 113 -170
138 -258 l15 -53 -310 0 -309 0 0 -148 0 -149 83 -17 c433 -93 527 -267 552
-1023 4 -106 4 -298 0 -427 l-8 -235 -26 -5 c-14 -3 -368 -7 -786 -8 -541 -1
-792 2 -870 10 -319 36 -467 95 -567 226 -38 51 -96 184 -105 243 l-6 34 307
-3 c199 -2 306 1 307 7 1 11 1 276 0 288 -1 4 -9 7 -19 7 -11 0 -54 9 -98 20
-273 70 -386 173 -449 413 -31 119 -43 211 -55 427 -11 198 -13 671 -3 772 l6
68 321 3 c832 7 1132 6 1266 -3z"/>
<path d="M745 1737 c-3 -7 -4 -138 -3 -292 l3 -280 113 -3 112 -3 0 296 0 295
-110 0 c-80 0 -112 -4 -115 -13z"/>
<path d="M1125 1738 c-2 -7 -5 -77 -7 -155 -3 -162 -12 -180 -85 -192 l-38 -6
-3 -114 -3 -113 53 7 c223 30 316 179 306 490 l-3 90 -108 3 c-80 2 -108 -1
-112 -10z"/>
<path d="M1370 1743 c0 -5 -2 -135 -3 -290 l-2 -283 113 0 112 0 0 290 0 290
-110 0 c-60 0 -110 -3 -110 -7z"/>
<path d="M1944 1741 c-121 -29 -195 -106 -255 -266 -13 -34 -32 -64 -50 -77
-29 -22 -29 -22 -29 -126 l0 -105 43 7 c59 10 136 56 173 104 17 22 46 75 64
119 43 104 54 120 90 128 l30 7 0 109 c0 120 3 116 -66 100z"/>
<path d="M2030 1460 l0 -290 115 0 115 0 0 290 0 290 -115 0 -115 0 0 -290z"/>
</g>
</svg>
